<svg width="20" height="20" viewBox="0 0 40 40" fill="none" xmlns="http://www.w3.org/2000/svg">
<path d="M32.5002 36.9641C32.5002 36.8681 32.4743 36.7739 32.4252 36.6914C32.3761 36.6089 32.3057 36.5411 32.2213 36.4953C30.1065 35.3586 28.1776 33.6188 27.3291 32.7453C27.2031 32.6131 27.0349 32.529 26.8535 32.5075C26.6721 32.486 26.4889 32.5283 26.3354 32.6273C22.4033 35.1602 17.6158 35.1617 13.683 32.6312C13.5282 32.5313 13.3432 32.4887 13.1602 32.511C12.9772 32.5332 12.8078 32.6189 12.6815 32.7531C11.8401 33.6344 9.93226 35.3547 7.80413 36.4836C7.71952 36.5261 7.64718 36.5896 7.59399 36.6679C7.5408 36.7463 7.50852 36.8369 7.50022 36.9313C7.49388 37.0116 7.50608 37.0922 7.53587 37.1671C7.56566 37.2419 7.61225 37.3089 7.67205 37.3629C7.73184 37.4169 7.80324 37.4564 7.88073 37.4784C7.95822 37.5004 8.03973 37.5043 8.11897 37.4898C9.74788 37.1633 11.3221 36.4211 12.8221 35.6281C12.9183 35.5775 13.0253 35.5506 13.134 35.5498C13.2428 35.549 13.3501 35.5742 13.4471 35.6234C15.4779 36.6559 17.7239 37.1941 20.0022 37.1941C22.2804 37.1941 24.5264 36.6559 26.5573 35.6234C26.6553 35.5737 26.7639 35.5482 26.8738 35.549C26.9838 35.5499 27.092 35.577 27.1893 35.6281C28.6815 36.4094 30.2533 37.1586 31.8768 37.4875C31.9535 37.5023 32.0326 37.4997 32.1082 37.4801C32.1838 37.4605 32.2541 37.4242 32.3139 37.374C32.3738 37.3238 32.4217 37.2609 32.4542 37.1898C32.4867 37.1188 32.503 37.0414 32.5018 36.9633L32.5002 36.9641ZM37.2432 19.2898C36.9705 18.6344 36.3916 18.1266 35.6104 17.8562L33.7502 17.1156V10.625C33.7502 9.29892 33.2234 8.02715 32.2858 7.08947C31.3481 6.15178 30.0763 5.625 28.7502 5.625H26.2502V5C26.2502 4.1712 25.921 3.37634 25.3349 2.79029C24.7489 2.20424 23.954 1.875 23.1252 1.875H16.8752C16.0464 1.875 15.2516 2.20424 14.6655 2.79029C14.0795 3.37634 13.7502 4.1712 13.7502 5V5.625H11.2502C9.92414 5.625 8.65237 6.15178 7.71469 7.08947C6.77701 8.02715 6.25022 9.29892 6.25022 10.625V17.1211L4.40804 17.8547C3.63147 18.1125 3.03069 18.6359 2.75569 19.2953C2.56429 19.7555 2.34554 20.4672 2.65413 21.3625L2.66194 21.3859L6.30726 30.7172C6.44155 31.06 6.67653 31.3541 6.98124 31.5608C7.28595 31.7675 7.64611 31.877 8.01429 31.875C8.05335 31.875 8.09241 31.875 8.13382 31.8711C10.5807 31.7148 12.5088 30.5219 13.8057 29.4016C15.658 31.0008 17.8369 31.875 20.0002 31.875C22.1635 31.875 24.3307 31 26.183 29.3984C27.4791 30.5203 29.4096 31.7164 31.8557 31.8711C32.2429 31.8983 32.6288 31.8013 32.9571 31.5942C33.2854 31.3871 33.5392 31.0807 33.6815 30.7195L37.326 21.4227C37.5823 20.7906 37.5526 20.0352 37.2432 19.2898ZM21.0158 12.0477L20.9268 12.0164C20.3234 11.8265 19.6763 11.8265 19.0729 12.0164L19.0276 12.0305L9.17835 15.9547C9.13092 15.9736 9.07958 15.9806 9.02883 15.975C8.97807 15.9695 8.92945 15.9516 8.88721 15.9229C8.84497 15.8942 8.8104 15.8557 8.78652 15.8105C8.76264 15.7654 8.75018 15.7151 8.75022 15.6641V10.625C8.75022 9.96196 9.01362 9.32607 9.48246 8.85723C9.9513 8.38839 10.5872 8.125 11.2502 8.125H28.7502C29.4133 8.125 30.0491 8.38839 30.518 8.85723C30.9868 9.32607 31.2502 9.96196 31.2502 10.625V15.6594C31.2503 15.7104 31.2378 15.7607 31.2139 15.8058C31.1901 15.851 31.1555 15.8896 31.1132 15.9182C31.071 15.9469 31.0224 15.9648 30.9716 15.9703C30.9209 15.9759 30.8695 15.9689 30.8221 15.95L21.0158 12.0477Z" fill="white"/>
</svg>
