<svg width="20" height="20" viewBox="0 0 40 40" fill="none" xmlns="http://www.w3.org/2000/svg">
<path d="M31.25 2.5H8.75C7.75544 2.5 6.80161 2.89509 6.09835 3.59835C5.39509 4.30161 5 5.25544 5 6.25V31.25C4.99996 31.7772 5.1113 32.2985 5.32671 32.7796C5.54213 33.2608 5.85676 33.6911 6.25 34.0422V35.4688C6.25 36.0075 6.46401 36.5241 6.84494 36.9051C7.22587 37.286 7.74253 37.5 8.28125 37.5H10.4688C11.0075 37.5 11.5241 37.286 11.9051 36.9051C12.286 36.5241 12.5 36.0075 12.5 35.4688V35H27.5V35.4688C27.5 36.0075 27.714 36.5241 28.0949 36.9051C28.4759 37.286 28.9925 37.5 29.5312 37.5H31.7188C32.2575 37.5 32.7741 37.286 33.1551 36.9051C33.536 36.5241 33.75 36.0075 33.75 35.4688V34.0422C34.1432 33.6911 34.4579 33.2608 34.6733 32.7796C34.8887 32.2985 35 31.7772 35 31.25V6.25C35 5.25544 34.6049 4.30161 33.9017 3.59835C33.1984 2.89509 32.2446 2.5 31.25 2.5ZM11.5211 31.2359C11.0066 31.2919 10.4874 31.1869 10.0351 30.9352C9.58283 30.6836 9.21981 30.2978 8.99614 29.831C8.77246 29.3643 8.69915 28.8397 8.78633 28.3295C8.87351 27.8193 9.11688 27.3488 9.48285 26.9828C9.84881 26.6169 10.3193 26.3735 10.8295 26.2863C11.3397 26.1992 11.8643 26.2725 12.331 26.4961C12.7978 26.7198 13.1836 27.0828 13.4352 27.5351C13.6869 27.9874 13.7919 28.5066 13.7359 29.0211C13.6743 29.5874 13.4212 30.1156 13.0184 30.5184C12.6156 30.9212 12.0874 31.1743 11.5211 31.2359ZM18.4375 22.5H8.75C8.41848 22.5 8.10054 22.3683 7.86612 22.1339C7.6317 21.8995 7.5 21.5815 7.5 21.25V11.25C7.5 10.9185 7.6317 10.6005 7.86612 10.3661C8.10054 10.1317 8.41848 10 8.75 10H18.4375C18.5204 10 18.5999 10.0329 18.6585 10.0915C18.7171 10.1501 18.75 10.2296 18.75 10.3125V22.1875C18.75 22.2704 18.7171 22.3499 18.6585 22.4085C18.5999 22.4671 18.5204 22.5 18.4375 22.5ZM20 7.5H8.78594C8.11406 7.5 7.53594 6.98437 7.50156 6.31328C7.49298 6.14401 7.51891 5.97477 7.57778 5.81584C7.63665 5.65691 7.72722 5.5116 7.84399 5.38877C7.96077 5.26593 8.1013 5.16812 8.25705 5.10129C8.4128 5.03446 8.58052 4.99999 8.75 5H31.2141C31.8859 5 32.4641 5.51563 32.4984 6.18672C32.507 6.35599 32.4811 6.52523 32.4222 6.68416C32.3634 6.84309 32.2728 6.9884 32.156 7.11123C32.0392 7.23407 31.8987 7.33188 31.7429 7.39871C31.5872 7.46554 31.4195 7.50001 31.25 7.5H20ZM21.5625 10H31.25C31.5815 10 31.8995 10.1317 32.1339 10.3661C32.3683 10.6005 32.5 10.9185 32.5 11.25V21.25C32.5 21.5815 32.3683 21.8995 32.1339 22.1339C31.8995 22.3683 31.5815 22.5 31.25 22.5H21.5625C21.4796 22.5 21.4001 22.4671 21.3415 22.4085C21.2829 22.3499 21.25 22.2704 21.25 22.1875V10.3125C21.25 10.2296 21.2829 10.1501 21.3415 10.0915C21.4001 10.0329 21.4796 10 21.5625 10ZM26.2641 29.0211C26.2081 28.5066 26.3131 27.9874 26.5648 27.5351C26.8164 27.0828 27.2022 26.7198 27.669 26.4961C28.1357 26.2725 28.6603 26.1992 29.1705 26.2863C29.6807 26.3735 30.1512 26.6169 30.5172 26.9828C30.8831 27.3488 31.1265 27.8193 31.2137 28.3295C31.3008 28.8397 31.2275 29.3643 31.0039 29.831C30.7802 30.2978 30.4172 30.6836 29.9649 30.9352C29.5126 31.1869 28.9934 31.2919 28.4789 31.2359C27.9126 31.1743 27.3844 30.9212 26.9816 30.5184C26.5788 30.1156 26.3257 29.5874 26.2641 29.0211Z" fill="white"/>
</svg>
