<svg width="20" height="20" viewBox="0 0 40 40" fill="none" xmlns="http://www.w3.org/2000/svg">
<path d="M30.9375 33.75H10.625C7.77813 33.75 5.12813 32.768 3.16328 30.9836C1.12344 29.1312 0 26.5625 0 23.75C0 20.8922 1.04609 18.4281 3.025 16.6234C4.43984 15.332 6.32344 14.4164 8.42969 13.9773C8.62383 13.9372 8.80563 13.8514 8.96008 13.7271C9.11453 13.6028 9.2372 13.4435 9.31797 13.2625C10.0679 11.5744 11.1911 10.0785 12.6031 8.88749C14.6688 7.16327 17.2266 6.24999 20 6.24999C23.1197 6.23641 26.1221 7.43859 28.3703 9.60155C30.3023 11.4617 31.6125 13.9203 32.2125 16.7891C32.2607 17.0243 32.3756 17.2407 32.5435 17.4124C32.7114 17.584 32.9252 17.7037 33.1594 17.757C36.7188 18.5484 40 21.1273 40 25.625C40 28.2336 39.0437 30.3734 37.2336 31.8148C35.643 33.0805 33.4664 33.75 30.9375 33.75Z" fill="white"/>
</svg>
