<svg width="20" height="20" viewBox="0 0 40 40" fill="none" xmlns="http://www.w3.org/2000/svg">
<path d="M37.5 10C37.5 8.67393 36.9732 7.40216 36.0355 6.46447C35.0979 5.52679 33.8261 5.00001 32.5 5.00001H31.25V3.78516C31.25 3.11251 30.7328 2.53516 30.0602 2.50157C29.8911 2.49343 29.7222 2.51968 29.5637 2.57875C29.4051 2.63781 29.2602 2.72845 29.1377 2.84518C29.0152 2.96191 28.9177 3.10229 28.851 3.25782C28.7844 3.41336 28.75 3.5808 28.75 3.75001V5.00001H11.25V3.78516C11.25 3.11251 10.7328 2.53516 10.0602 2.50157C9.89114 2.49343 9.72224 2.51968 9.56367 2.57875C9.40511 2.63781 9.26019 2.72845 9.13769 2.84518C9.01519 2.96191 8.91767 3.10229 8.85103 3.25782C8.78438 3.41336 8.75002 3.5808 8.75 3.75001V5.00001H7.5C6.17392 5.00001 4.90215 5.52679 3.96447 6.46447C3.02678 7.40216 2.5 8.67393 2.5 10V10.9375C2.5 11.0204 2.53292 11.0999 2.59153 11.1585C2.65013 11.2171 2.72962 11.25 2.8125 11.25H37.1875C37.2704 11.25 37.3499 11.2171 37.4085 11.1585C37.4671 11.0999 37.5 11.0204 37.5 10.9375V10ZM2.5 32.5C2.5 33.8261 3.02678 35.0979 3.96447 36.0355C4.90215 36.9732 6.17392 37.5 7.5 37.5H32.5C33.8261 37.5 35.0979 36.9732 36.0355 36.0355C36.9732 35.0979 37.5 33.8261 37.5 32.5V14.0625C37.5 13.9796 37.4671 13.9001 37.4085 13.8415C37.3499 13.7829 37.2704 13.75 37.1875 13.75H2.8125C2.72962 13.75 2.65013 13.7829 2.59153 13.8415C2.53292 13.9001 2.5 13.9796 2.5 14.0625V32.5Z" fill="white"/>
</svg>
