<svg width="20" height="20" viewBox="0 0 40 40" fill="none" xmlns="http://www.w3.org/2000/svg">
<path d="M22.6519 20L30.0738 12.5781C30.426 12.2265 30.6241 11.7494 30.6246 11.2517C30.625 10.754 30.4277 10.2765 30.0761 9.92424C29.7245 9.572 29.2473 9.37386 28.7496 9.37342C28.2519 9.37298 27.7744 9.57027 27.4222 9.92189L20.0003 17.3438L12.5784 9.92189C12.2262 9.56965 11.7485 9.37177 11.2503 9.37177C10.7522 9.37177 10.2744 9.56965 9.9222 9.92189C9.56996 10.2741 9.37207 10.7519 9.37207 11.25C9.37207 11.7482 9.56996 12.2259 9.9222 12.5781L17.3441 20L9.9222 27.4219C9.56996 27.7741 9.37207 28.2519 9.37207 28.75C9.37207 29.2482 9.56996 29.7259 9.9222 30.0781C10.2744 30.4304 10.7522 30.6283 11.2503 30.6283C11.7485 30.6283 12.2262 30.4304 12.5784 30.0781L20.0003 22.6563L27.4222 30.0781C27.7744 30.4304 28.2522 30.6283 28.7503 30.6283C29.2485 30.6283 29.7262 30.4304 30.0784 30.0781C30.4307 29.7259 30.6286 29.2482 30.6286 28.75C30.6286 28.2519 30.4307 27.7741 30.0784 27.4219L22.6519 20Z" fill="white"/>
</svg>
