<svg width="20" height="20" viewBox="0 0 40 40" fill="none" xmlns="http://www.w3.org/2000/svg">
<path d="M28.0172 10.1L6.75703 31.4125L5.46875 34.5313L8.5875 33.243L29.9 11.9828L28.0172 10.1ZM32.2711 5.84689L31.35 6.76721L33.2328 8.65002L34.1539 7.72893C34.3956 7.48706 34.5314 7.15913 34.5314 6.81721C34.5314 6.47528 34.3956 6.14735 34.1539 5.90549L34.0953 5.84689C33.9755 5.72711 33.8333 5.63208 33.6768 5.56725C33.5203 5.50242 33.3526 5.46906 33.1832 5.46906C33.0138 5.46906 32.8461 5.50242 32.6896 5.56725C32.5331 5.63208 32.3909 5.72711 32.2711 5.84689Z" stroke="white" stroke-width="3" stroke-linecap="round" stroke-linejoin="round"/>
</svg>
