<svg width="20" height="20" viewBox="0 0 40 40" fill="none" xmlns="http://www.w3.org/2000/svg">
<path d="M37.4923 17.6992L36.2251 30.625C36.2251 31.4529 35.8966 32.2469 35.3118 32.8328C34.7269 33.4187 33.9335 33.7486 33.1056 33.75H6.89467C6.06682 33.7486 5.27336 33.4187 4.6885 32.8328C4.10363 32.2469 3.77514 31.4529 3.77514 30.625L2.50795 17.6992C2.48045 17.3552 2.52447 17.0092 2.63724 16.6831C2.75001 16.3569 2.92909 16.0576 3.1632 15.8041C3.3973 15.5505 3.68137 15.3482 3.99752 15.2098C4.31366 15.0714 4.65503 15 5.00014 15H35.0079C35.3524 15.0011 35.6929 15.0733 36.0081 15.2121C36.3233 15.351 36.6065 15.5535 36.8397 15.8069C37.073 16.0604 37.2514 16.3593 37.3637 16.6849C37.476 17.0105 37.5198 17.3559 37.4923 17.6992Z" stroke="white" stroke-width="3" stroke-linecap="round" stroke-linejoin="round"/>
</svg>
