<svg width="20" height="20" viewBox="0 0 40 40" fill="none" xmlns="http://www.w3.org/2000/svg">
<path d="M15.8 5.78123C12.9773 4.43357 9.03204 3.77342 3.75 3.74998C3.25185 3.74321 2.76348 3.88847 2.35 4.16639C2.01062 4.39578 1.7328 4.70506 1.541 5.06702C1.34919 5.42898 1.24926 5.83253 1.25 6.24217V28.5937C1.25 30.1047 2.325 31.2445 3.75 31.2445C9.30235 31.2445 14.8719 31.7633 18.2078 34.9164C18.2534 34.9597 18.3108 34.9887 18.3728 34.9997C18.4347 35.0107 18.4986 35.0032 18.5563 34.9783C18.6141 34.9533 18.6632 34.9119 18.6977 34.8592C18.7321 34.8066 18.7503 34.7449 18.75 34.682V8.34529C18.7501 8.1676 18.7121 7.99195 18.6385 7.83022C18.5649 7.66848 18.4575 7.52443 18.3234 7.40779C17.5593 6.75454 16.7105 6.20741 15.8 5.78123ZM37.65 4.16404C37.2363 3.88682 36.7479 3.74237 36.25 3.74998C30.968 3.77342 27.0227 4.43045 24.2 5.78123C23.2896 6.20664 22.4405 6.75269 21.6758 7.40467C21.542 7.52151 21.4348 7.66562 21.3614 7.82732C21.288 7.98902 21.25 8.16457 21.25 8.34217V34.6804C21.25 34.7409 21.2678 34.8001 21.3012 34.8504C21.3347 34.9008 21.3822 34.9402 21.438 34.9637C21.4937 34.9871 21.5551 34.9936 21.6145 34.9822C21.6739 34.9709 21.7287 34.9423 21.7719 34.9C23.7773 32.9078 27.2969 31.2422 36.2531 31.2429C36.9162 31.2429 37.5521 30.9796 38.0209 30.5107C38.4897 30.0419 38.7531 29.406 38.7531 28.7429V6.24295C38.754 5.8325 38.6539 5.42814 38.4615 5.06557C38.2691 4.703 37.9904 4.39338 37.65 4.16404Z" fill="white"/>
</svg>
