<svg width="20" height="20" viewBox="0 0 40 40" fill="none" xmlns="http://www.w3.org/2000/svg">
<path d="M25.625 10V36.25M14.375 3.75003V30M24.4742 9.73753L15.5258 4.01253C15.1698 3.83472 14.7766 3.74445 14.3787 3.7492C13.9809 3.75396 13.5899 3.85361 13.2383 4.03987L4.41484 9.96018C4.21411 10.0665 4.04614 10.2256 3.929 10.4202C3.81186 10.6148 3.74998 10.8377 3.75 11.0649V34.1742C3.74998 34.3898 3.80571 34.6017 3.91178 34.7894C4.01785 34.9771 4.17065 35.1341 4.35534 35.2453C4.54003 35.3565 4.75033 35.418 4.96582 35.4239C5.18131 35.4298 5.39466 35.3799 5.58516 35.2789L13.2273 30.2953C13.5818 30.1075 13.9763 30.0078 14.3774 30.0045C14.7785 30.0013 15.1746 30.0946 15.532 30.2766L24.2711 35.9797C24.6255 36.1603 25.0178 36.2537 25.4155 36.2522C25.8132 36.2507 26.2048 36.1543 26.5578 35.9711L35.5758 30.0383C35.779 29.9329 35.9493 29.7736 36.0682 29.578C36.1871 29.3824 36.25 29.1579 36.25 28.9289V5.82581C36.25 5.61024 36.1943 5.39833 36.0882 5.21066C35.9822 5.02299 35.8294 4.86594 35.6447 4.75476C35.46 4.64358 35.2497 4.58206 35.0342 4.57617C34.8187 4.57027 34.6053 4.62021 34.4148 4.72112L26.7586 9.71018C26.4074 9.89593 26.017 9.9953 25.6197 10.0001C25.2224 10.0048 24.8298 9.91481 24.4742 9.73753Z" stroke="white" stroke-width="3" stroke-linecap="round" stroke-linejoin="round"/>
</svg>
