<svg width="20" height="20" viewBox="0 0 40 40" fill="none" xmlns="http://www.w3.org/2000/svg">
<path d="M20.625 37.5C15.818 37.5 11.2078 35.5904 7.80869 32.1913C4.40959 28.7922 2.5 24.1821 2.5 19.375C2.5 12.0313 6.71875 5.44689 13.2508 2.60392C13.481 2.50359 13.7361 2.47492 13.9828 2.52166C14.2296 2.56839 14.4565 2.68836 14.6341 2.86593C14.8117 3.04351 14.9316 3.27045 14.9784 3.51719C15.0251 3.76392 14.9964 4.01902 14.8961 4.24923C14.1461 5.9711 13.75 8.17657 13.75 10.625C13.75 19.2406 20.7594 26.25 29.375 26.25C31.8234 26.25 34.0289 25.8539 35.7508 25.1039C35.981 25.0036 36.2361 24.9749 36.4828 25.0217C36.7296 25.0684 36.9565 25.1884 37.1341 25.3659C37.3117 25.5435 37.4316 25.7704 37.4784 26.0172C37.5251 26.2639 37.4964 26.519 37.3961 26.7492C34.5531 33.2813 27.9688 37.5 20.625 37.5Z" fill="black"/>
</svg>
