<svg width="20" height="20" viewBox="0 0 40 40" fill="none" xmlns="http://www.w3.org/2000/svg">
<path d="M14.5799 36.25H12.5002C12.2912 36.2499 12.0856 36.1975 11.9021 36.0974C11.7187 35.9974 11.5632 35.8529 11.45 35.6773C11.3368 35.5017 11.2694 35.3005 11.254 35.0921C11.2386 34.8837 11.2757 34.6747 11.3619 34.4844L16.3978 23.3711L8.83611 23.2031L6.0783 26.5445C5.55252 27.2055 5.13299 27.5 4.06267 27.5H2.66267C2.44101 27.5071 2.22089 27.4607 2.02098 27.3647C1.82106 27.2687 1.64724 27.1259 1.51424 26.9484C1.3283 26.6977 1.14549 26.2727 1.32361 25.6664L2.87205 20.1195C2.88377 20.0781 2.89783 20.0367 2.91346 19.9961C2.91423 19.9922 2.91423 19.9882 2.91346 19.9844C2.89732 19.9438 2.8835 19.9023 2.87205 19.8602L1.32205 14.2781C1.15408 13.6836 1.33767 13.268 1.52205 13.0234C1.64586 12.8592 1.80649 12.7262 1.99102 12.6353C2.17555 12.5444 2.37885 12.4981 2.58455 12.5H4.06267C4.86189 12.5 5.63767 12.8586 6.09392 13.4375L8.7947 16.7227L16.3978 16.6102L11.3635 5.51641C11.2771 5.32613 11.2399 5.11726 11.2551 4.90888C11.2704 4.7005 11.3376 4.49926 11.4506 4.32356C11.5637 4.14786 11.719 4.0033 11.9024 3.90311C12.0857 3.80291 12.2912 3.75027 12.5002 3.75H14.6025C14.8958 3.75589 15.184 3.82778 15.4457 3.96033C15.7074 4.09287 15.9359 4.28267 16.1142 4.51562L25.8838 16.3906L30.397 16.2719C30.7275 16.2539 31.6431 16.2477 31.8549 16.2477C36.172 16.25 38.7502 17.6516 38.7502 20C38.7502 20.7391 38.4549 22.1094 36.4791 22.9813C35.3127 23.4969 33.7564 23.7578 31.8533 23.7578C31.6439 23.7578 30.7306 23.7516 30.3955 23.7336L25.883 23.6133L16.0892 35.4883C15.9108 35.7202 15.6825 35.9091 15.4212 36.0409C15.16 36.1728 14.8724 36.2442 14.5799 36.25Z" fill="white"/>
</svg>
