<svg width="20" height="20" viewBox="0 0 40 40" fill="none" xmlns="http://www.w3.org/2000/svg">
<path d="M25.9879 5.04531C24.4676 3.40391 22.3442 2.5 20.0004 2.5C17.6442 2.5 15.5137 3.39844 14.0004 5.02969C12.4708 6.67891 11.7254 8.92031 11.9004 11.3406C12.2473 16.1156 15.8809 20 20.0004 20C24.12 20 27.7473 16.1164 28.0997 11.3422C28.277 8.94375 27.527 6.70703 25.9879 5.04531ZM33.7504 37.5H6.25045C5.8905 37.5047 5.53403 37.4291 5.20698 37.2786C4.87993 37.1282 4.59053 36.9068 4.35982 36.6305C3.85201 36.0234 3.64732 35.1945 3.79888 34.3563C4.45826 30.6984 6.51607 27.6258 9.75045 25.4688C12.6239 23.5539 16.2637 22.5 20.0004 22.5C23.7372 22.5 27.377 23.5547 30.2504 25.4688C33.4848 27.625 35.5426 30.6977 36.202 34.3555C36.3536 35.1937 36.1489 36.0227 35.6411 36.6297C35.4104 36.9062 35.1211 37.1277 34.794 37.2783C34.467 37.4288 34.1105 37.5046 33.7504 37.5Z" fill="white"/>
</svg>
