<svg width="20" height="20" viewBox="0 0 40 40" fill="none" xmlns="http://www.w3.org/2000/svg">
<path d="M30 2.5H25C25 2.16848 24.8683 1.85054 24.6339 1.61612C24.3995 1.3817 24.0815 1.25 23.75 1.25H16.25C15.9185 1.25 15.6005 1.3817 15.3661 1.61612C15.1317 1.85054 15 2.16848 15 2.5H10C8.75 2.5 7.5 3.75 7.5 5V27.5C7.5 29.3688 20 33.75 20 33.75C20 33.75 32.5 29.3172 32.5 27.5V5C32.5 3.75 31.25 2.5 30 2.5ZM20 27.5C19.2583 27.5 18.5333 27.2801 17.9166 26.868C17.2999 26.456 16.8193 25.8703 16.5355 25.1851C16.2516 24.4998 16.1774 23.7458 16.3221 23.0184C16.4667 22.291 16.8239 21.6228 17.3483 21.0983C17.8728 20.5739 18.541 20.2167 19.2684 20.0721C19.9958 19.9274 20.7498 20.0016 21.4351 20.2855C22.1203 20.5693 22.706 21.0499 23.118 21.6666C23.5301 22.2833 23.75 23.0083 23.75 23.75C23.75 24.7446 23.3549 25.6984 22.6517 26.4017C21.9484 27.1049 20.9946 27.5 20 27.5ZM28.75 15.625C28.75 15.7908 28.6842 15.9497 28.5669 16.0669C28.4497 16.1842 28.2908 16.25 28.125 16.25H11.875C11.7092 16.25 11.5503 16.1842 11.4331 16.0669C11.3158 15.9497 11.25 15.7908 11.25 15.625V9.375C11.25 9.20924 11.3158 9.05027 11.4331 8.93306C11.5503 8.81585 11.7092 8.75 11.875 8.75H28.125C28.2908 8.75 28.4497 8.81585 28.5669 8.93306C28.6842 9.05027 28.75 9.20924 28.75 9.375V15.625Z" fill="white"/>
<path d="M24.5309 33.75L25.7277 35H14.2637L15.4684 33.75L12.9684 32.7344L6.98242 38.75H10.5137L11.7637 37.5H28.2277L29.4777 38.75H33.0168L27.0512 32.6758L24.5309 33.75Z" fill="white"/>
</svg>
