<svg width="20" height="20" viewBox="0 0 40 40" fill="none" xmlns="http://www.w3.org/2000/svg">
<path d="M19.9735 8.75C13.8845 8.75 7.63836 12.2742 2.72117 19.3227C2.58081 19.5261 2.5039 19.7665 2.50014 20.0136C2.49639 20.2607 2.56596 20.5034 2.70007 20.7109C6.4782 26.625 12.6407 31.25 19.9735 31.25C27.2266 31.25 33.5157 26.6109 37.3009 20.6836C37.4318 20.4801 37.5015 20.2432 37.5015 20.0012C37.5015 19.7592 37.4318 19.5223 37.3009 19.3187C33.5071 13.4594 27.172 8.75 19.9735 8.75Z" stroke="white" stroke-width="3" stroke-linecap="round" stroke-linejoin="round"/>
<path d="M20 26.25C23.4518 26.25 26.25 23.4518 26.25 20C26.25 16.5482 23.4518 13.75 20 13.75C16.5482 13.75 13.75 16.5482 13.75 20C13.75 23.4518 16.5482 26.25 20 26.25Z" stroke="white" stroke-width="3" stroke-miterlimit="10"/>
</svg>
